<svg xmlns="http://www.w3.org/2000/svg" width="230.8" height="100" viewBox="0 0 230.8 100"><defs><linearGradient id="linear-gradient" x1="41.6" y1="841.9" x2="41.6" y2="752.3" gradientTransform="matrix(1 0 0 -1 0 841.9)" gradientUnits="userSpaceOnUse"><stop offset="0" stop-color="#ee2e7e"/><stop offset="1" stop-color="#67338c"/></linearGradient><style>.cls-1{fill:#64328c}</style></defs><g id="Layer_2" data-name="Layer 2"><g id="Artwork"><path class="cls-1" d="M66.8 72.3h-2.4v24c0 2 1.2 3.3 3 3.3h2V74.8a2.5 2.5 0 00-2.6-2.5zM83.2 77.5c-5.7 0-9.3 3.7-9.3 9.7v9.4a2.7 2.7 0 002.8 3h2V87.3c0-4.6 2.2-5.2 4.1-5.2 3.3 0 4.5 1.4 4.5 5.2v9.4a2.6 2.6 0 002.9 3h2V87.1c0-6.3-3.2-9.7-9-9.7zM101.3 73.7h-1.1a4.3 4.3 0 00-2.7 1.7 6.4 6.4 0 00-1 3.6v13.3c0 5.2 2.3 7.7 7.2 7.7 4 0 4.3-2.3 4.3-3.3v-2h-1l-.2.2a5.9 5.9 0 01-2.8.4c-1.4 0-2.7-.4-2.7-3.4v-9.4h3.6c2.1 0 3.4-1 3.4-2.8V78h-7v-4.2zM128.3 85.3c0-4.2-3.8-7.8-8.3-7.8-6 0-10.2 4.9-10.2 11.6 0 6.3 4.3 10.9 10.2 10.9 5.6 0 7.5-2.3 7.5-4.5v-2.2h-1.1l-.2.2a7.9 7.9 0 01-5.7 2 5.4 5.4 0 01-5.7-4.5h4.2c7 0 9.3-1.5 9.3-5.7zm-8.7-3.3c3 0 4 1.8 4 3.5 0 .7 0 1.3-5 1.3l-4 .1v-.1a5 5 0 015-4.8zM137 92.6V74.2a3 3 0 00-3.1-3.4H132V93c0 4.4 2.4 6.7 6.9 6.7 2.9 0 3.5-1.5 3.5-2.7v-1.8h-3c-1.5 0-2.5-.4-2.5-2.6zM147.2 76.4a3 3 0 000-6.1 3.1 3.1 0 00-3 3 3 3 0 003 3.1zM149.5 92.6V81.3a3.2 3.2 0 00-3-3.4h-1.8V93c0 4.4 2.3 6.7 6.7 6.7a2.6 2.6 0 002.7-2.7v-1.9H152c-1.5 0-2.5-.4-2.5-2.6zM169 72c-6.8 0-13.5 4.8-13.5 14 0 8 5.5 14 13 14 5 0 7.7-2.7 7.7-5.4v-1.8H175l-.2.3a7.2 7.2 0 01-5.7 2.3c-5.4 0-8.8-3.9-8.8-10 0-5.3 3.5-8.8 8.7-8.8 1.5 0 4.2.3 5.7 2.6l.3.3h1.3v-2c0-2.7-2.8-5.5-7.4-5.5zM186.5 77.5c-4.8 0-7.7 2.6-7.7 5v2.3h1.2l.2-.2c1.2-1.6 3.3-2.5 6-2.5 3 0 4 1 4 3.5v.2h-2c-6.5 0-10.2 2.8-10.2 7.5 0 3.8 3.7 6.7 8.5 6.7 5.5 0 8.6-2.8 8.6-7.8v-6.4c0-5.3-3.1-8.3-8.6-8.3zm1.7 12.6h2V92c0 2.6-1 3.5-3.6 3.5-2.1 0-3.7-1-3.7-2.5 0-.8 0-3 5.3-3zM206.5 77.9c-4.6 0-7.4 3.6-7.4 9.3v9.4a2.7 2.7 0 002.7 3h2.2V87.5c0-4.2 1-5 3-5a4.1 4.1 0 012.7.9l.2.1h1.1v-2.3c0-.8-.3-3.3-4.5-3.3zM228.6 93.5a8 8 0 01-5.7 2 5.4 5.4 0 01-5.7-4.5h4.3c7 0 9.3-1.4 9.3-5.7s-3.8-7.8-8.4-7.8c-6 0-10.2 4.9-10.2 11.6 0 6.3 4.3 10.9 10.2 10.9 5.6 0 7.6-2.3 7.6-4.5v-2.2h-1.2zM222 82c3 0 4 1.8 4 3.5 0 .7 0 1.3-5 1.3l-4 .1v-.1a5 5 0 015-4.8z"/><path d="M80.6 4.8C78.7 2.1 75.7.7 71.7.5c-3 0-6.7 1.9-6.9 2a47 47 0 00-13 9.8l-.5.4-8.4 8.3-.3.2-.6-.6C31 7 21.6.5 15.1 0h-.8a12.3 12.3 0 00-8.8 3.7A20.8 20.8 0 000 19C.7 32 10.5 46 20.6 59.3c3 4.1 13.7 18.3 21.8 26.4a12 12 0 007.6 3.9c.8 0 .5-1 .5-1a71 71 0 00-5.9-6.6C26.7 62.9 8.6 42 4.4 21.8c-.6-2.5-1-8 0-11.4a9.6 9.6 0 018-6.9c4.3-.7 9 2.4 12.3 5.2C27 10.2 34 17.3 39.2 23l.3.3-.5.5-5.9 4.4c-10 6.4-16 11.2-17.4 12.8h.1a6 6 0 002.3.6l.8-.1a5.8 5.8 0 00.7-.2 16.4 16.4 0 003-1.3l.6-.4 1-.7h.2l2.9-2a1 1 0 00-.1.2L26.7 56a2.4 2.4 0 00.5 2 1.4 1.4 0 001.3.6c.4-.2.9-1.5 1-3V44v-8.8L42 25.5c5.1 4.5 9 7.7 12 10V56c.1 1.7.7 3 1.3 3.3a1.9 1.9 0 001.6-.6 2.4 2.4 0 00.7-2.3c-.2-1-.5-14-.6-18.7 3.5 2.5 5 3.2 5.6 3.2a26 26 0 003.3.1l-5-4.3L44.6 23l9.4-8.6a98.2 98.2 0 019.6-8.8l1.6-1.2.5-.5c.9-.7 3.9-2.9 6.2-2.1 6.2 2 7.8 9.7 7 16s-5.5 20.3-14.3 35-14.4 21.8-14.4 21.8-.1 1.3 2-.2C67.6 61 81.4 24.6 81.4 24.6c2.5-8.1 2.3-15.6-.8-19.8zm-31.3 41l-.5-.3-.2-.2-.6-.4-.6-.3-.3-.2c-.3 0-.5-.2-.8-.4l-.4-.1-.4-.1a8 8 0 00-.9-.2l-.8-.2-.7-.1h-1.3a10.9 10.9 0 00-1.5 0h-.6a8.7 8.7 0 00-1.2.4l-.2.1-.7.3-.9.5h-.2a6.7 6.7 0 00-.8.5l-1 .7-.5.4-.3.3a4.4 4.4 0 01-.6.4 3 3 0 01-.4.2 1.8 1.8 0 01-.4 0 .3.3 0 01-.1 0H32a.6.6 0 01-.2 0 1.9 1.9 0 01-.3-.4.8.8 0 010-.2 1.4 1.4 0 01-.1-.4 5.7 5.7 0 01-.1-.6 2.1 2.1 0 010-.7 3.9 3.9 0 01.5-.9l.3-.4a5.5 5.5 0 01.6-.6 5.1 5.1 0 01.8-.6l1.2-.8.4-.3.3-.2 1-.3.5-.2 1.3-.4 1-.3h.8l.4-.1.8-.1h2.9a9.6 9.6 0 011 .1l1 .2 1 .2a9.6 9.6 0 01.8.4 8.3 8.3 0 011.7 1l.8.6.2.1a2.5 2.5 0 01.3.3 3.3 3.3 0 01.6.9 8 8 0 01.4 1 3.5 3.5 0 010 .6 1 1 0 01-.1.7 1.1 1.1 0 01-.4.3 1.5 1.5 0 01-.4.1 2.7 2.7 0 01-.8 0 1.9 1.9 0 01-.6-.1 2.4 2.4 0 01-.5-.2zm-3.5 5.7l.3.3a2 2 0 00.7.4 1.3 1.3 0 00.4 0 5.3 5.3 0 00.6 0 3.7 3.7 0 00.6-.2 1.3 1.3 0 00.5-.3 1.5 1.5 0 00.2-.4 1 1 0 000-.1 1.3 1.3 0 000-.3 1.8 1.8 0 000-.5 4.6 4.6 0 00-.4-.6 5 5 0 00-.5-.7 4.6 4.6 0 00-.5-.5 8.4 8.4 0 00-1.2-.8 5 5 0 00-.6-.3h-.1a4.3 4.3 0 00-.6-.2 6.3 6.3 0 00-.8-.2 6 6 0 00-.9-.2h-2.1a8 8 0 00-1 .2H40l-.5.2-.5.1-.5.2-.7.2-.2.1-.6.3-.3.1a10.5 10.5 0 00-1.7 1.2 5.5 5.5 0 00-.5.5 1.7 1.7 0 00-.3.6 1.5 1.5 0 000 .3v.4a1.6 1.6 0 00.3.8 1.5 1.5 0 00.3.3 1.4 1.4 0 00.4.1 1.4 1.4 0 00.6 0 2.4 2.4 0 00.6-.2l.5-.4a3.8 3.8 0 01.4-.3l1-.6a3.6 3.6 0 01.5-.2h.2c.2-.2.5-.2.7-.3l.5-.1H40.8l.4-.1h.9a4.6 4.6 0 01.5 0 2.4 2.4 0 01.5 0l.4.1.5.2.5.1a4.5 4.5 0 01.9.5zm-2.5 1.9l-.4-.1a2.3 2.3 0 00-.6-.1h-1.2a2.3 2.3 0 00-.8.3h-.2a1.7 1.7 0 00-.7.6 2.7 2.7 0 00-.4.5 2.1 2.1 0 00-.2.5 1.5 1.5 0 000 .4 3.6 3.6 0 000 .6 1.4 1.4 0 00.3.9 2.5 2.5 0 00.5.5 3 3 0 001.2.4 5 5 0 001 .1 2.6 2.6 0 00.4 0 2.3 2.3 0 00.4-.1 5 5 0 00.5-.3 2.4 2.4 0 00.5-.4 1.5 1.5 0 00.3-.5 2.3 2.3 0 00.5-.7l.1-.3a1.5 1.5 0 000-.5 1.8 1.8 0 00-.2-.8 2.7 2.7 0 00-.4-.5 1.8 1.8 0 00-.6-.5z" fill="url(#linear-gradient)"/></g></g></svg>